<svg
           
            xmlns="http://www.w3.org/2000/svg"
            width="50"
            height="50"
            viewBox="0 0 50 50"
          >
            <path
              d="m21.503 18.005.329-.013c.569-.005.936.022 1.375.402a8 8 0 0 1 .328.356c.393.441.588.521 1.172.586.164.103.164.103.293.293.032.252.045.474.043.726l.006.39c-.048.348-.048.348-.203.586-.318.206-.556.205-.932.214-.488-.017-.488-.017-.867.232v.391c.784-.056 1.538-.201 2.306-.364l.575-.119q.701-.144 1.402-.292.395-.083.791-.164l.739-.155c1.087-.221 2.294-.429 3.269.214.446.349.847.745 1.239 1.153l.237.246.479.506c.458.476.458.476 1.047.751.328-.019.56-.074.861-.201 1.087-.429 2.063-.364 3.168-.012 1.014.458 1.804 1.221 2.246 2.246v.195l.344.061c.428.095.825.243 1.231.407 1.821.722 3.413 1.029 5.378.988l.244-.004a16 16 0 0 0 .453-.016c.337-.009.517.003.793.204.221.317.202.572.199.954l.005.199c-.004.478-.004.478-.218.692-.275.156-.45.165-.766.166l-.328.003-.353-.002-.363.001-.761-.002q-.582-.002-1.165.002l-.738-.001-.353.002-.328-.003-.288-.001c-.302-.045-.432-.111-.643-.33l-.098-.488-1.953-.391-.208.537c-.466 1.111-1.23 1.976-2.335 2.489-1.156.394-2.403.398-3.524-.103-1.004-.552-1.629-1.326-2.135-2.337l-.507.134-.285.075c-.527.13-.527.13-.912.479l-.11.232c-.166.348-.288.548-.629.738-.293.043-.583.038-.879.035l-.272.001q-.453 0-.905-.003h-.648q-.699 0-1.397-.002-1.105-.003-2.21-.001-1.55.002-3.099.001h-.199l-2.789-.003h-.396q-1.636-.003-3.272.001-1.098.002-2.196-.003-.684-.001-1.368.001-.317 0-.633-.002a63 63 0 0 0-.866.001l-.252-.005c-.575.01-.911.173-1.368.52-.799.57-1.912.599-2.849.473-1.12-.223-1.976-.837-2.701-1.712-.117-.179-.117-.179-.117-.374l-.2.005q-.45.009-.899.014l-.315.007-.303.003-.279.005c-.298-.04-.429-.115-.641-.327a4 4 0 0 1-.049-.726l-.003-.39c.052-.349.052-.349.197-.589.363-.223.683-.193 1.1-.175l.235.005q.285.008.571.019v-.879l-.167-.087-.748-.39-.264-.134-.252-.132-.232-.121c-.193-.112-.193-.112-.388-.307-.021-.291-.03-.572-.029-.863l-.001-.26v-.545a83 83 0 0 0-.004-.834v-.528l-.003-.253c.004-.574.004-.574.153-.792.249-.174.425-.162.727-.162l.341-.003.368.002.378-.001q.396 0 .791.002.507.003 1.014-.001h.967l.368-.002.341.003.3.001c.246.037.246.037.425.173.148.202.148.321.143.569l-.003.237-.007.247-.004.25-.014.611.194.011c.67.041 1.238.225 1.857.478l-.017-.243-.013-.319-.017-.316c.046-.294.046-.294.234-.524.413-.221.76-.214 1.221-.216 1.79-.05 3.254-.544 4.769-1.491 1.79-1.119 3.403-1.537 5.491-1.554l.501-.009q.604-.01 1.208-.016c-.212-.239-.268-.289-.599-.343l-.347-.017-.349-.02-.267-.01c-.067-.226-.067-.226-.098-.488.335-.481.957-.351 1.483-.354m7.529 4.572-.325.066-1.021.209-.695.141-1.697.346v.098h6.836c-.524-.646-.524-.646-1.172-1.074-.665-.045-1.276.079-1.926.214"
              fill="#E43834"
            />
            <path
              d="m.842 21.349.341-.003.368.002.378-.001q.396 0 .791.002.507.002 1.014-.001h.967l.368-.002.341.003.3.001c.247.037.247.037.426.173.148.202.148.321.143.569l-.003.237-.007.247-.004.25-.014.611.194.011c.67.041 1.238.225 1.857.478v.195l.217.074c.884.395 1.403 1.302 1.736 2.172v.293l.313-.008a105 105 0 0 1 1.166-.019l.502-.01c1.162-.029 2.183.004 3.134.769l.513.488c.846.693 1.822.804 2.877.79h.394q.412 0 .824-.005.513-.005 1.025-.004c3.364.004 6.718-.294 9.944-1.304.536-.163.93-.266 1.477-.112.195.195.195.195.244.476-.012.478-.259.862-.48 1.275a7 7 0 0 0-.362.831c-.165.427-.343.818-.769 1.032q-.428.014-.855.012h-.272l-.907-.001h-2.047l-2.589.002-.763.001-2.162.003h-3.188q-1.637-.001-3.275.003-.919.003-1.838 0-.865-.003-1.73.002-.317.001-.634-.001-.433-.002-.868.003l-.252-.004c-.575.011-.912.174-1.369.521-.799.57-1.912.599-2.849.472-1.12-.223-1.976-.837-2.701-1.712-.121-.18-.121-.18-.121-.375l-.2.005q-.45.009-.899.014l-.315.007-.303.003-.279.005c-.298-.04-.429-.115-.641-.327a4 4 0 0 1-.049-.726l-.003-.39c.052-.349.052-.349.197-.589.363-.223.683-.193 1.1-.175l.235.005q.285.008.571.019v-.879l-.167-.087-.748-.39-.264-.134-.252-.132-.232-.121c-.193-.112-.193-.112-.388-.307-.021-.291-.03-.572-.029-.863l-.001-.26v-.545a83 83 0 0 0-.004-.834v-.528l-.003-.253c.004-.574.004-.574.153-.792.249-.174.425-.162.727-.162"
              fill="#222120"
            />
            <path
              d="M40.353 24.497c.459.43.803.9 1.053 1.479v.195l.344.061c.428.095.825.243 1.231.407 1.821.722 3.413 1.029 5.378.988l.244-.004a16 16 0 0 0 .453-.016c.337-.009.517.003.793.204.221.317.202.572.199.954l.005.199c-.004.478-.004.478-.218.692-.275.156-.45.165-.766.166l-.328.003-.353-.002-.363.001-.761-.002q-.582-.002-1.165.002l-.738-.001-.353.002-.328-.003-.288-.001c-.302-.045-.432-.111-.643-.33l-.098-.488-1.953-.391-.208.537c-.466 1.111-1.23 1.976-2.335 2.489-1.156.394-2.403.398-3.524-.103-1.008-.554-1.762-1.365-2.149-2.452-.241-1.06-.256-2.363.239-3.346.3-.459.651-.847 1.043-1.228l.171-.177c1.483-1.426 3.954-1.058 5.417.163"
              fill="#232220"
            />
            <path
              d="M39.355 24.902c.706.446 1.104 1.14 1.404 1.904.184 1.032.034 1.922-.537 2.808a3.43 3.43 0 0 1-2.136 1.343c-1.036.1-1.869-.096-2.721-.697a3.57 3.57 0 0 1-1.216-2.293c-.045-.987.28-1.821.91-2.575 1.187-1.196 2.852-1.312 4.296-.489m-31.25-.001c.706.446 1.104 1.14 1.404 1.904.184 1.032.034 1.922-.537 2.808a3.42 3.42 0 0 1-2.136 1.343c-1.036.1-1.869-.096-2.721-.697a3.57 3.57 0 0 1-1.216-2.293c-.045-.987.28-1.821.91-2.575 1.187-1.196 2.852-1.312 4.296-.49"
              fill="#626260"
            />
            <path
              d="m.842 21.349.341-.003.368.002.378-.001q.396 0 .791.002.507.002 1.014-.001h.967l.368-.002.341.003.3.001c.247.037.247.037.426.173.151.208.148.336.143.591l-.003.251-.007.261-.004.264-.015.645-.171.014c-1.288.121-2.347.719-3.18 1.702-.321.466-.533.987-.75 1.507q-.456-.209-.909-.421l-.261-.12-.251-.117-.231-.107A1.6 1.6 0 0 1 0 25.586a8 8 0 0 1-.039-.873l-.001-.259.002-.543q.002-.416-.002-.831l.001-.527-.002-.251c.007-.571.007-.571.155-.79.249-.174.425-.162.727-.163"
              fill="#E43834"
            />
            <path
              d="M39.355 24.902c.706.446 1.104 1.14 1.404 1.904.184 1.032.034 1.922-.537 2.808a3.43 3.43 0 0 1-2.136 1.343c-1.036.1-1.869-.096-2.721-.697a3.57 3.57 0 0 1-1.216-2.293c-.045-.987.28-1.821.91-2.575 1.187-1.196 2.852-1.312 4.296-.489m-4.064 1.256c-.444.663-.42 1.391-.331 2.162.181.741.639 1.285 1.276 1.691.653.334 1.304.372 2.013.197.752-.264 1.265-.707 1.637-1.413.27-.681.268-1.486.037-2.179-.424-.834-.954-1.206-1.837-1.52-1.095-.179-2.074.229-2.794 1.061M8.105 24.902c.706.446 1.104 1.14 1.404 1.904.184 1.032.034 1.922-.537 2.808a3.42 3.42 0 0 1-2.136 1.343c-1.036.1-1.869-.096-2.721-.697a3.57 3.57 0 0 1-1.216-2.293c-.045-.987.28-1.821.91-2.575 1.187-1.196 2.852-1.312 4.296-.49m-4.064 1.256c-.443.664-.419 1.392-.33 2.162.181.741.639 1.285 1.276 1.691.653.334 1.304.372 2.013.197.752-.264 1.265-.707 1.637-1.413.27-.681.268-1.486.037-2.179-.425-.832-.955-1.204-1.838-1.518-1.095-.179-2.074.229-2.794 1.061"
              fill="#F6F602"
            />
            <path
              d="m45.447 27.575.356-.001q.372 0 .745.004.57.004 1.141 0l.724.003.345-.001.321.005.282.002c.322.065.439.183.638.441.052.348.052.348.049.739l.005.199c-.004.478-.004.478-.218.692-.275.156-.45.165-.766.166l-.328.003-.353-.002-.363.001-.761-.002q-.582-.002-1.165.002l-.738-.001-.353.002-.328-.003-.288-.001c-.296-.044-.431-.12-.643-.33-.055-.311-.055-.311-.055-.671l-.007-.359c.177-.968.951-.895 1.759-.886"
              fill="#222121"
            />
            <path
              d="M41.406 26.172a13 13 0 0 1 1.712.471l.226.078.704.245.482.167q.587.202 1.173.406v.098l-.307.008-.401.017-.202.004c-.309.015-.527.052-.792.214-.224.357-.234.71-.252 1.125l-1.019-.189-.294-.054-.279-.052-.259-.048c-.199-.049-.199-.049-.296-.146a6 6 0 0 1-.027-.398l-.011-.246-.01-.259c-.024-.726-.024-.726-.146-1.44"
              fill="#E33733"
            />
            <path
              d="m21.503 18.005.329-.013c.553-.005.93.016 1.36.383a8 8 0 0 1 .343.375l.156.176a11 11 0 0 1 .332.41q-.549.016-1.099.024l-.315.01-.303.004-.279.006c-.322-.057-.423-.199-.641-.435-.319-.068-.319-.068-.659-.073l-.346-.017-.264-.007c-.067-.226-.067-.226-.098-.488.335-.481.957-.351 1.483-.354"
              fill="#202020"
            />
            <path
              d="M6.641 26.66c.32.202.473.368.684.684.051.384.014.559-.171.903-.311.381-.46.447-.946.5-.409-.043-.552-.135-.836-.427-.223-.319-.249-.593-.195-.977.374-.599.765-.783 1.465-.684m31.249.001c.332.202.575.402.684.781-.019.515-.123.806-.488 1.172-.352.117-.606.13-.977.098-.333-.207-.562-.404-.684-.781-.045-.295-.059-.492.103-.75.404-.497.73-.608 1.362-.519"
              fill="#FAFAFA"
            />
          </svg>